PathFileType  4	(X/Y/Z) C:\Users\antoi\Documents\MyRepositories\mobilecap\ResultsAnalysis
DataRate	CameraRate	NumFrames	NumMarkers	Units	OrigDataRate	OrigDataStartFrame	OrigNumFrames
100.0	100.0	6	51	mm	100.0	74	197
Frame#	Time	r_knee			r_shank_antsup			r_ankle			r_calc			r_5meta			r_toe			L_knee			L_shank_antsup			L_ankle			L_calc			L_5meta			L_toe			r_sh2			r_sh3			r_sh4			L_sh2			L_sh3			r_thigh1			r_thigh2			r_thigh3			r_thigh4			r_thigh5			L_thigh1			L_thigh2			L_thigh3			L_thigh4			r.ASIS			r.PSIS			L.ASIS			L.PSIS			C7			R_Shoulder			L_Shoulder			R_Sternum			L_Sternum			R_humerus			R_elbow_med			R_elbow_lat			R_forearm			R_wrist_radius			R_wrist_ulna			L_humerus			L_elbow_med			L_elbow_lat			L_forearm			L_wrist_radius			L_wrist_ulna			R_HJC			L_HJC			R_HJC_reg			L_HJC_reg			
		X1	Y1	Z1	X2	Y2	Z2	X3	Y3	Z3	X4	Y4	Z4	X5	Y5	Z5	X6	Y6	Z6	X7	Y7	Z7	X8	Y8	Z8	X9	Y9	Z9	X10	Y10	Z10	X11	Y11	Z11	X12	Y12	Z12	X13	Y13	Z13	X14	Y14	Z14	X15	Y15	Z15	X16	Y16	Z16	X17	Y17	Z17	X18	Y18	Z18	X19	Y19	Z19	X20	Y20	Z20	X21	Y21	Z21	X22	Y22	Z22	X23	Y23	Z23	X24	Y24	Z24	X25	Y25	Z25	X26	Y26	Z26	X27	Y27	Z27	X28	Y28	Z28	X29	Y29	Z29	X30	Y30	Z30	X31	Y31	Z31	X32	Y32	Z32	X33	Y33	Z33	X34	Y34	Z34	X35	Y35	Z35	X36	Y36	Z36	X37	Y37	Z37	X38	Y38	Z38	X39	Y39	Z39	X40	Y40	Z40	X41	Y41	Z41	X42	Y42	Z42	X43	Y43	Z43	X44	Y44	Z44	X45	Y45	Z45	X46	Y46	Z46	X47	Y47	Z47	X48	Y48	Z48	X49	Y49	Z49	X50	Y50	Z50	X51	Y51	Z51	

74	0.73000000	206.90887	470.50946	-117.30310	239.19727	406.69777	-131.60496	153.47377	87.61085	-157.01561	95.90021	59.93163	-195.42989	261.28790	43.78145	-134.26170	302.88652	60.62008	-190.14912	386.50358	499.91341	-400.71838	394.77763	406.54101	-389.35871	192.05286	172.38213	-381.98468	126.29791	160.75784	-334.31407	263.25993	80.59731	-410.86053	318.43740	82.28288	-359.75351	220.39718	295.92103	-128.94385	175.66660	417.85917	-90.49729	145.40608	304.28054	-91.28298	330.74037	459.00888	-425.85109	263.87121	355.65041	-429.65803	274.02348	712.86380	-64.50057	267.60828	601.49812	-89.43906	202.49246	581.47609	-79.57251	160.11748	713.23304	-53.57651	151.38242	602.85787	-92.28386	302.25604	762.77215	-427.32337	370.33317	641.40404	-417.58100	204.31482	710.73436	-420.47319	271.07657	593.55372	-387.00570	305.88358	926.75770	-124.29086	90.21167	960.16065	-193.64326	296.13094	922.72215	-345.57202	89.88325	954.57333	-275.56033	173.63237	1395.96941	-206.88004	234.04627	1348.33712	-70.89122	208.38914	1383.97514	-350.87742	299.79321	1331.19889	-198.40430	296.23653	1335.17776	-238.50205	269.64125	1233.57019	-21.78454	196.37786	1021.78448	-25.62435	240.11493	1033.58336	22.09973	315.03570	974.91016	19.21003	382.51889	847.10310	-0.53556	357.29729	835.09201	28.90790	193.70523	1292.60395	-434.86697	113.49552	1079.23084	-436.29006	132.22372	1105.78306	-494.61118	187.17092	1020.40636	-532.68889	226.40518	899.49143	-550.84448	190.05858	894.15701	-568.42048	219.33067	841.56817	-126.71836	213.55503	838.53528	-334.12223	227.67669	864.83507	-149.96676	227.09462	854.88723	-295.83108	
75	0.74000000	209.53516	470.10601	-117.36260	241.08514	405.85974	-131.40904	154.05798	87.44801	-157.22955	96.09672	60.14814	-195.68512	261.63895	43.29443	-134.35360	303.21546	59.88495	-190.08984	401.78121	502.12156	-398.89154	413.98854	409.02066	-387.77015	224.13763	164.25216	-382.63428	158.73980	148.58514	-335.46479	301.27090	76.76847	-410.95278	355.42978	81.27009	-359.55956	221.56051	295.19931	-128.85342	177.58705	417.60197	-90.75024	146.67690	304.33444	-91.58698	347.87637	458.25329	-424.79651	286.30078	351.83065	-429.27936	279.57113	711.76590	-64.45355	272.23601	600.36838	-89.56081	206.57967	581.21137	-79.89189	165.53721	713.94949	-54.04761	155.58044	603.79246	-92.86907	314.34036	763.96535	-427.23358	383.30915	643.02294	-416.46955	216.71670	710.95210	-421.33303	284.32677	594.87296	-387.07867	313.76442	925.73408	-123.59081	98.58959	959.92958	-195.18321	305.74151	922.43217	-345.06717	98.98916	954.59899	-277.13212	182.68280	1395.94012	-206.97518	242.99987	1348.03613	-70.71687	218.38774	1383.37640	-350.84486	308.84323	1330.49851	-197.94574	305.54421	1334.45525	-237.95124	279.21003	1233.29102	-21.96695	206.93028	1021.38833	-25.95904	251.19254	1033.07011	21.77298	326.46964	975.12133	18.43934	395.04213	847.83306	-1.85764	370.09781	835.74234	27.60038	204.08205	1291.89402	-434.77016	123.52181	1078.88983	-436.72454	142.56146	1105.37057	-494.94631	198.09748	1019.74819	-532.63478	237.11292	898.95257	-550.57743	201.28675	893.50867	-568.50057	226.77636	840.80995	-127.26601	222.99363	838.40423	-334.72831	235.47451	864.07760	-150.18519	236.19063	854.58456	-296.15095	
76	0.75000000	212.26831	469.70441	-117.46988	243.11967	405.02810	-131.26715	154.68931	87.29923	-157.46226	96.31694	60.39014	-195.98964	262.02743	42.79349	-134.47137	303.57355	59.13908	-190.04353	416.36851	503.76335	-396.88375	432.54834	411.23283	-385.99738	256.65070	156.27076	-383.29577	191.72696	136.65887	-336.78228	339.56090	73.44843	-410.71146	392.45276	80.85152	-358.93585	222.80984	294.47776	-128.80550	179.65290	417.37543	-91.07826	148.05228	304.43896	-91.92821	364.58201	456.96903	-423.71486	308.72253	347.70307	-428.94343	284.98802	710.67803	-64.35269	276.85071	599.20267	-89.62273	210.62195	580.95154	-80.24404	170.81634	714.65788	-54.62729	159.72393	604.78029	-93.56193	326.37846	764.91668	-427.05440	395.93735	644.26966	-415.22572	228.94176	711.13197	-422.17788	297.03534	595.95365	-387.23716	321.69827	924.62369	-122.98366	107.03611	959.68335	-196.62794	315.42391	922.03980	-344.62843	108.15796	954.63730	-278.57520	191.77160	1395.82489	-207.21172	251.93530	1347.66741	-70.62979	228.52223	1382.61096	-350.92097	317.97722	1329.67556	-197.54661	314.95430	1333.59596	-237.46822	288.69126	1232.94825	-22.18021	217.42392	1020.96448	-26.28666	262.06691	1032.57000	21.48331	337.75421	975.31610	17.66421	407.36945	848.54124	-3.19317	382.71736	836.39414	26.31128	214.60206	1290.98458	-434.73787	133.70939	1078.37937	-437.11645	153.03119	1104.72862	-495.26285	209.09516	1018.85403	-532.59778	247.85091	898.16974	-550.31497	212.50685	892.60285	-568.52551	234.30578	839.99021	-127.82774	232.40861	838.22420	-335.32536	243.33146	863.21582	-150.50825	245.33550	854.22421	-296.56153	
77	0.76000000	215.05480	469.39095	-117.59556	245.30203	404.32495	-131.16829	155.28422	87.24182	-157.71211	96.56623	60.66332	-196.33541	262.39111	42.36179	-134.59318	303.91940	58.48015	-190.00990	430.20783	504.93448	-394.75614	450.41730	413.29001	-384.07369	289.50908	148.61456	-384.00845	225.20088	125.13485	-338.31341	377.96932	70.82654	-410.15986	429.43088	81.27626	-357.86595	224.13087	293.87630	-128.78245	181.82045	417.27224	-91.45180	149.48965	304.66743	-92.29893	380.77046	455.27626	-422.63545	331.08622	343.38057	-428.68625	290.22832	709.68020	-64.19109	281.33657	598.10981	-89.58351	214.57373	580.80198	-80.60491	175.95822	715.36238	-55.33373	163.79853	605.84579	-94.33924	338.27811	765.68411	-426.78880	408.21207	645.26709	-413.85608	240.95020	711.28213	-422.99786	309.24423	596.75701	-387.40415	329.65156	923.53067	-122.46613	115.56023	959.41064	-197.96508	325.18968	921.67754	-344.22343	117.38572	954.65523	-279.88218	200.92181	1395.61970	-207.59210	260.80102	1347.28751	-70.63395	238.72217	1381.75002	-351.11410	327.18638	1328.85038	-197.21421	324.42612	1332.71980	-237.08031	297.99880	1232.62098	-22.39833	227.85139	1020.50377	-26.58898	272.62114	1032.15381	21.22889	348.80393	975.55635	16.91800	419.44828	849.33609	-4.50912	395.06723	837.10246	25.06627	225.17392	1289.95860	-434.78885	144.06378	1077.69168	-437.47164	163.61399	1103.88172	-495.55980	220.09771	1017.79825	-532.59100	258.62065	897.19471	-550.07324	223.65555	891.49779	-568.49389	241.96783	839.15948	-128.39801	241.86986	838.06576	-335.90997	251.28500	862.36785	-150.89902	254.54429	853.88775	-297.00520	
78	0.77000000	217.84889	469.23650	-117.71130	247.61447	403.84617	-131.08920	155.77220	87.33832	-157.97763	96.83148	60.98026	-196.71020	262.67424	42.06804	-134.69687	304.21668	57.98811	-189.98501	443.25931	505.73684	-392.57892	467.56644	415.28655	-382.02030	322.62873	141.45935	-384.79151	259.11075	114.16759	-340.08051	416.32607	69.07297	-409.32096	466.24249	82.74141	-356.34940	225.50061	293.49517	-128.75474	184.03807	417.36784	-91.84316	150.93411	305.07910	-92.69447	396.38904	453.28602	-421.58697	353.34303	338.98165	-428.53844	295.26697	708.82612	-63.95808	285.60630	597.18597	-89.41823	218.41966	580.83768	-80.96783	180.98755	716.05673	-56.17047	167.80268	606.98562	-95.17060	349.94674	766.30218	-426.43340	420.12484	646.10439	-412.36905	252.70446	711.40050	-423.77820	320.99482	597.26084	-387.50380	337.56843	922.53637	-122.02494	124.16252	959.10109	-199.20427	335.04499	921.43862	-343.82112	126.67086	954.61438	-281.06871	210.15421	1395.32095	-208.11686	269.55671	1346.94637	-70.73337	248.92132	1380.85581	-351.43350	336.45177	1328.11914	-196.95157	333.92142	1331.92589	-236.80667	307.06903	1232.38073	-22.60119	238.16789	1020.01270	-26.84396	282.78616	1031.86866	21.00317	359.54900	975.88703	16.23181	431.23014	850.29592	-5.76643	407.06751	837.90310	23.89422	235.72278	1288.88934	-434.94295	154.58332	1076.82141	-437.80416	174.29522	1102.85933	-495.83845	231.05709	1016.64380	-532.61823	269.42254	896.07082	-549.85439	234.67849	890.25572	-568.40787	249.77777	838.35681	-128.96923	251.43470	837.97241	-336.47616	259.33911	861.63369	-151.31754	263.81749	853.62681	-297.42806	
79	0.78000000	220.62490	469.28530	-117.79628	250.02803	403.64380	-131.00465	156.11081	87.62816	-158.25725	97.08686	61.36043	-197.10073	262.83806	41.95581	-134.76481	304.44014	57.71071	-189.96151	455.50608	506.24521	-390.41444	483.97291	417.28362	-379.84751	355.92795	134.97570	-385.64201	293.40945	103.90582	-342.07765	454.45827	68.33456	-408.21733	502.71719	85.36378	-354.40756	226.90439	293.40061	-128.69489	186.26687	417.70748	-92.23137	152.33543	305.70962	-93.11422	411.42488	451.09476	-420.59018	375.44798	334.62872	-428.51766	300.11671	708.13745	-63.64661	289.62241	596.49888	-89.12391	222.17910	581.08864	-81.34397	185.95243	716.72787	-57.12598	171.76130	608.16541	-96.03058	361.30953	766.77169	-425.97922	431.65823	646.81333	-410.77826	264.17212	711.47212	-424.50233	332.31007	597.45191	-387.47635	345.39977	921.68906	-121.63422	132.83935	958.75179	-200.37563	344.98833	921.35626	-343.39395	136.02026	954.48448	-282.17068	219.48413	1394.92745	-208.78487	278.17922	1346.68061	-70.93419	259.07350	1379.97307	-351.88758	345.74946	1327.53964	-196.75848	343.41664	1331.27592	-236.65491	315.87506	1232.27832	-22.78038	248.31449	1019.50929	-27.03791	292.55240	1031.73080	20.79725	369.94817	976.33035	15.62884	442.67882	851.45371	-6.92520	418.66313	838.80861	22.82300	246.21278	1287.82650	-435.21459	165.26007	1075.77234	-438.13048	185.06628	1101.69297	-496.10271	241.95024	1015.43299	-532.67401	280.25333	894.82535	-549.64456	245.54662	888.93136	-568.27156	257.72099	837.60953	-129.52795	261.13966	837.95092	-337.01122	267.47122	861.07366	-151.72621	273.15119	853.45370	-297.78881	
